<?xml version="1.0" encoding="utf-8"?>
<!-- Generator: Adobe Illustrator 15.0.0, SVG Export Plug-In . SVG Version: 6.00 Build 0)  -->
<!DOCTYPE svg PUBLIC "-//W3C//DTD SVG 1.1//EN" "http://www.w3.org/Graphics/SVG/1.1/DTD/svg11.dtd">
<svg version="1.1" id="レイヤー_1" xmlns="http://www.w3.org/2000/svg" xmlns:xlink="http://www.w3.org/1999/xlink" x="0px"
	 y="0px" width="128px" height="128px" viewBox="0 0 128 128" enable-background="new 0 0 128 128" xml:space="preserve">
<circle fill="#FFFFFF" cx="64" cy="64" r="64"/>
<g>
	<path fill="#3D3D3D" d="M96.971,111.224c2.602-12.594,2.195-26.489,8.381-29.123c7.074-3.016,7.098,2.118,9.91,5.113
		c-1.888-5.628,5.717-11.275-1.906-17.099c-9.166-5.905-19.609-1.279-29.08-0.456c-3.709-5.799-7.207-12.907-15.512-12.696
		c-9.571-3.3-16.722-13.85-16.975-23.861c-2.072-6.663,3.321-13.99,0.555-20.286c-19.07,1.421-15.612,20.779-13.19,32.034
		c-4.083-6.497-4.758-14.5-3.169-22.195l-8.9,4.701c-7.472,9.614,2.172,20.337,6.181,28.96c-5.653-3.278-9.354-13.562-11.625-18.927
		c-7.015,4.304-9.081,11.661-7.703,19.289c4.328,6.965,12.75,11.468,18.982,14.142c-8.42-0.024-14.997-6.701-20.457-11.279
		C8.605,66.356,9.2,75.89,15.195,83.166c10.36,1.393,20.812,1.839,31.027-2.66l0.25,0.467c-8.861,6.469-19.795,5.678-30.03,4.515
		c3.612,6.752,10.13,11.067,17.642,12.767C43.021,94.73,49.733,88.2,56.265,83.559c-3.596,7.868-13.356,11.528-19.992,16.528
		c6.953,2.892,14.678,3.287,21.37,0.644c5.514-2.612,6.008-11.228,10.104-13.688c-0.448,5.904-3.793,9.763-6.29,14.062
		c5.83,0.805,8.478,4.56,9.904,11.784c0.479,2.426-0.124,5.204-0.979,8.136c-2.219,0.26-3.963,0.35-6.252,0.35
		c-31.745,0-57.483-25.565-57.483-57.096c0-31.533,25.738-57.1,57.483-57.1c25.06,0,46.37,15.934,54.241,38.152l-0.064,0.192
		c-6.773,5.611-17.165,10.367-17.885,11.009c-4.494,4.014-4.362,10.359-4.362,10.359l1.89-0.397
		c10.384-0.853,17.542,1.635,19.83,7.59c1.757-0.932,2.767-2.076,3.459-3.313l0.02-0.177c-1.854,16.782-11.038,31.377-24.307,40.561
		"/>
	<path fill="#3D3D3D" d="M63.95,127.776c-35.014,0-63.496-28.487-63.496-63.502c0-35.013,28.482-63.498,63.496-63.498
		c35.016,0,63.504,28.485,63.504,63.498C127.454,99.289,98.966,127.776,63.95,127.776 M63.95,4.958
		c-32.706,0-59.313,26.609-59.313,59.316c0,32.711,26.608,59.32,59.313,59.32c32.71,0,59.322-26.609,59.322-59.32
		C123.271,31.567,96.66,4.958,63.95,4.958"/>
</g>
</svg>
