<?xml version="1.0" encoding="utf-8"?>
<!-- Generator: Adobe Illustrator 15.0.0, SVG Export Plug-In . SVG Version: 6.00 Build 0)  -->
<!DOCTYPE svg PUBLIC "-//W3C//DTD SVG 1.1//EN" "http://www.w3.org/Graphics/SVG/1.1/DTD/svg11.dtd">
<svg version="1.1" id="nht-logo" xmlns="http://www.w3.org/2000/svg" xmlns:xlink="http://www.w3.org/1999/xlink" x="0px" y="0px"
	 width="232px" height="63px" viewBox="52.5 96 232 63" enable-background="new 52.5 96 232 63" xml:space="preserve">
<path fill="#FFFFFF" d="M182.794,138.083h-0.08l-5.112-17.931h-2.879l-5.111,17.931h-0.082l-5.354-17.931h-2.718l6.733,20.934h2.801
	l5.109-17.605h0.082l5.15,17.605h2.801l6.734-20.934h-2.719L182.794,138.083z M95.78,119.891c0.316-0.281,4.878-2.371,7.85-4.832
	l0.029-0.086c-3.455-9.755-12.811-16.748-23.813-16.748c-13.937,0-25.237,11.224-25.237,25.066s11.3,25.068,25.237,25.068
	c1.005,0,1.771-0.041,2.745-0.154c0.375-1.288,0.64-2.51,0.43-3.573c-0.626-3.17-1.788-4.819-4.349-5.171
	c1.098-1.891,2.566-3.582,2.761-6.175c-1.797,1.08-2.013,4.864-4.434,6.009c-2.939,1.161-6.331,0.986-9.383-0.281
	c2.913-2.193,7.198-3.803,8.778-7.258c-2.868,2.038-5.815,4.905-9.735,6.452c-3.302-0.746-6.163-2.642-7.749-5.604
	c4.493,0.511,9.295,0.855,13.183-1.982l-0.109-0.205c-4.484,1.977-9.072,1.779-13.621,1.168c-2.632-3.193-2.894-7.38-1.199-10.372
	c2.396,2.011,5.283,4.94,8.98,4.952c-2.736-1.173-6.434-3.152-8.333-6.209c-0.606-3.35,0.302-6.579,3.38-8.469
	c0.998,2.354,2.622,6.869,5.105,8.31c-1.761-3.785-5.98-8.469-2.715-12.714c2.024-2.652,3.908-2.064,3.908-2.064
	c-0.697,3.381-0.401,6.893,1.391,9.746c-1.063-4.941-2.58-13.441,5.792-14.063c1.215,2.765-1.153,5.979-0.244,8.905
	c0.111,4.396,3.25,9.027,7.453,10.477c3.645-0.092,5.181,3.025,6.809,5.572c4.159-0.362,8.744-2.391,12.77,0.201
	c3.346,2.557,0.006,5.035,0.834,7.506c-1.233-1.313-1.244-3.567-4.349-2.244c-2.708,1.154-2.539,7.225-3.671,12.742
	c5.794-4.02,9.809-10.389,10.645-17.717c-0.304,0.543-0.746,1.045-1.519,1.453c-1.004-2.613-4.147-3.705-8.706-3.332l-0.83,0.176
	C93.864,124.439,93.806,121.652,95.78,119.891 M152.125,119.544c-6.652,0-9.453,5.558-9.453,11.074
	c0,5.964,2.801,11.075,9.453,11.075c5.273,0,8.032-2.758,9.128-7.506h-2.556c-0.813,3.164-2.84,5.355-6.572,5.355
	c-4.909,0-6.855-4.503-6.896-8.236h16.105C161.537,125.426,158.859,119.544,152.125,119.544 M145.229,129.158
	c0.405-3.813,2.719-7.465,6.896-7.465c4.139,0,6.531,3.611,6.652,7.465H145.229z M104.93,126.064
	c-0.003,0.024-0.008,0.052-0.011,0.076L104.93,126.064z M136.872,136.623h-0.081l-16.876-24.504h-3.084v28.967h2.759v-24.504h0.081
	l16.876,24.504h3.083v-28.967h-2.758V136.623z M94.266,143.902c0.002-0.016,0.004-0.029,0.008-0.043l-0.019,0.012L94.266,143.902z
	 M79.77,96.453c-14.799,0-26.838,12.039-26.838,26.837c0,14.799,12.039,26.839,26.838,26.839c14.798,0,26.837-12.04,26.837-26.839
	C106.607,108.492,94.568,96.453,79.77,96.453 M79.77,149.548c-14.479,0-26.257-11.778-26.257-26.258
	c0-14.478,11.778-26.256,26.257-26.256c14.478,0,26.256,11.778,26.256,26.256C106.026,137.77,94.248,149.548,79.77,149.548
	 M239.854,130.018c0-1.599-0.225-3.092-0.672-4.48c-0.449-1.389-1.123-2.594-2.021-3.618c-0.896-1.022-1.997-1.83-3.303-2.418
	c-1.303-0.59-2.825-0.884-4.565-0.884c-1.709,0-3.224,0.294-4.543,0.884c-1.317,0.588-2.426,1.396-3.322,2.418
	c-0.899,1.024-1.571,2.229-2.021,3.618c-0.448,1.39-0.672,2.883-0.672,4.48c0,1.599,0.224,3.086,0.672,4.459
	c0.449,1.375,1.121,2.574,2.021,3.598c0.896,1.025,2.005,1.824,3.322,2.398c1.319,0.574,2.834,0.863,4.543,0.863
	c1.74,0,3.263-0.289,4.565-0.863c1.306-0.574,2.406-1.373,3.303-2.398c0.898-1.022,1.572-2.223,2.021-3.598
	C239.63,133.104,239.854,131.616,239.854,130.018 M235.543,133.531c-0.354,1.023-0.836,1.879-1.453,2.566
	c-0.617,0.687-1.339,1.213-2.167,1.576c-0.827,0.364-1.702,0.547-2.631,0.547c-0.925,0-1.802-0.183-2.628-0.547
	c-0.828-0.363-1.551-0.891-2.167-1.576c-0.618-0.688-1.101-1.543-1.451-2.566c-0.353-1.024-0.524-2.196-0.524-3.514
	c0-1.318,0.174-2.49,0.524-3.516c0.351-1.023,0.833-1.885,1.451-2.587c0.616-0.701,1.339-1.233,2.167-1.599
	c0.826-0.363,1.703-0.547,2.628-0.547c0.929,0,1.804,0.184,2.631,0.547c0.828,0.365,1.55,0.896,2.167,1.599s1.1,1.563,1.453,2.587
	c0.35,1.023,0.523,2.196,0.523,3.516C236.066,131.335,235.893,132.507,235.543,133.531 M213.232,124.573H197.98v-12.454h-3.854
	v28.967h3.854v-13.268h15.252v13.268h3.854v-28.967h-3.854V124.573z M283.917,126.904c-0.295-1.459-0.828-2.807-1.601-4.039
	c-0.771-1.234-1.795-2.251-3.069-3.051c-1.276-0.801-2.882-1.198-4.817-1.198c-1.486,0-2.854,0.28-4.102,0.841
	c-1.25,0.561-2.33,1.348-3.241,2.355c-0.911,1.01-1.619,2.201-2.125,3.576c-0.504,1.375-0.757,2.889-0.757,4.545
	c0.055,1.654,0.302,3.185,0.736,4.586c0.435,1.402,1.086,2.606,1.957,3.617c0.869,1.01,1.94,1.795,3.218,2.355
	c1.276,0.56,2.784,0.843,4.522,0.843c2.469,0,4.518-0.618,6.145-1.851c1.625-1.235,2.678-3.073,3.154-5.514h-3.533
	c-0.309,1.432-0.946,2.496-1.916,3.197c-0.967,0.701-2.209,1.053-3.721,1.053c-1.181,0-2.203-0.195-3.074-0.589
	c-0.868-0.394-1.584-0.92-2.146-1.579c-0.563-0.656-0.968-1.414-1.221-2.271c-0.252-0.854-0.364-1.76-0.337-2.713h16.283
	C284.33,129.751,284.211,128.363,283.917,126.904 M267.991,127.913c0.056-0.841,0.237-1.634,0.547-2.377s0.729-1.396,1.263-1.957
	c0.532-0.562,1.17-1.002,1.915-1.325c0.743-0.32,1.577-0.482,2.503-0.482c0.896,0,1.717,0.162,2.461,0.482
	c0.743,0.323,1.389,0.758,1.938,1.305c0.547,0.547,0.98,1.199,1.304,1.959c0.322,0.756,0.513,1.556,0.567,2.396H267.991z
	 M259.92,138.032c0.826-1.023,1.443-2.224,1.852-3.597c0.405-1.375,0.608-2.834,0.608-4.377s-0.21-3-0.631-4.375
	s-1.046-2.588-1.872-3.641c-0.828-1.051-1.865-1.887-3.111-2.503c-1.25-0.616-2.716-0.925-4.398-0.925
	c-1.514,0-2.903,0.273-4.166,0.818c-1.262,0.547-2.188,1.426-2.775,2.631h-0.084v-2.944h-3.578v26.403h3.578v-7.553h0.084
	c0.393,0.646,0.877,1.186,1.451,1.617c0.574,0.436,1.186,0.779,1.83,1.032c0.646,0.252,1.298,0.435,1.958,0.548
	c0.657,0.109,1.254,0.168,1.787,0.168c1.653,0,3.104-0.296,4.354-0.884C258.052,139.861,259.092,139.057,259.92,138.032
	 M255.164,137.506c-0.827,0.479-1.857,0.717-3.091,0.717c-1.235,0-2.288-0.231-3.157-0.695c-0.869-0.461-1.578-1.071-2.125-1.829
	c-0.547-0.757-0.945-1.634-1.198-2.63c-0.252-0.996-0.379-2.025-0.379-3.094c0-1.009,0.118-2.004,0.356-2.986
	c0.24-0.982,0.625-1.857,1.158-2.629c0.531-0.771,1.22-1.396,2.062-1.873c0.841-0.477,1.864-0.715,3.071-0.715
	c1.15,0,2.152,0.226,3.009,0.672c0.854,0.451,1.556,1.053,2.103,1.811c0.549,0.757,0.955,1.621,1.221,2.589
	c0.269,0.968,0.402,1.955,0.402,2.966c0,1.066-0.113,2.104-0.338,3.112c-0.227,1.009-0.591,1.909-1.096,2.692
	C256.659,136.398,255.991,137.029,255.164,137.506"/>
<polygon fill="#FFFFFF" points="243.521,147.492 243.521,148.334 239.904,148.334 239.904,157.861 238.916,157.861 238.916,148.334 
	235.314,148.334 235.314,147.492 "/>
<path fill="#FFFFFF" d="M244.247,150.629c0.203-0.648,0.508-1.223,0.915-1.721c0.406-0.499,0.917-0.896,1.531-1.191
	c0.615-0.295,1.33-0.443,2.144-0.443s1.524,0.148,2.136,0.443c0.609,0.297,1.117,0.692,1.524,1.191
	c0.405,0.498,0.712,1.072,0.915,1.721s0.305,1.332,0.305,2.048c0,0.718-0.102,1.399-0.305,2.048
	c-0.203,0.649-0.51,1.221-0.915,1.715c-0.407,0.494-0.915,0.889-1.524,1.185c-0.611,0.295-1.322,0.442-2.136,0.442
	s-1.528-0.147-2.144-0.442c-0.614-0.296-1.125-0.69-1.531-1.185c-0.407-0.494-0.712-1.064-0.915-1.715
	c-0.203-0.647-0.306-1.33-0.306-2.048C243.941,151.961,244.044,151.277,244.247,150.629 M245.154,154.34
	c0.15,0.549,0.383,1.036,0.697,1.467c0.313,0.433,0.719,0.777,1.213,1.039s1.084,0.391,1.771,0.391s1.275-0.129,1.766-0.391
	c0.487-0.262,0.891-0.606,1.205-1.039c0.313-0.431,0.547-0.918,0.696-1.467c0.149-0.547,0.226-1.102,0.226-1.663
	c0-0.571-0.074-1.128-0.226-1.67s-0.383-1.028-0.696-1.46c-0.314-0.431-0.718-0.777-1.205-1.038
	c-0.49-0.262-1.078-0.393-1.766-0.393s-1.277,0.131-1.771,0.393c-0.494,0.261-0.898,0.607-1.213,1.038
	c-0.315,0.432-0.547,0.918-0.697,1.46c-0.149,0.542-0.225,1.099-0.225,1.67C244.93,153.238,245.005,153.793,245.154,154.34"/>
<polygon fill="#FFFFFF" points="256.244,147.492 256.244,153.068 262.271,147.492 263.607,147.492 258.975,151.775 263.826,157.861 
	262.548,157.861 258.234,152.459 256.244,154.305 256.244,157.861 255.257,157.861 255.257,147.492 "/>
<polygon fill="#FFFFFF" points="263.491,147.492 264.652,147.492 268.066,152.75 271.466,147.492 272.643,147.492 268.546,153.592 
	268.546,157.861 267.559,157.861 267.559,153.592 "/>
<path fill="#FFFFFF" d="M273.296,150.629c0.203-0.648,0.509-1.223,0.915-1.721c0.406-0.499,0.917-0.896,1.532-1.191
	c0.614-0.295,1.329-0.443,2.144-0.443c0.813,0,1.523,0.148,2.135,0.443c0.609,0.297,1.117,0.692,1.524,1.191
	c0.406,0.498,0.712,1.072,0.915,1.721s0.305,1.332,0.305,2.048c0,0.718-0.102,1.399-0.305,2.048
	c-0.203,0.649-0.509,1.221-0.915,1.715c-0.407,0.494-0.915,0.889-1.524,1.185c-0.61,0.295-1.321,0.442-2.135,0.442
	c-0.814,0-1.529-0.147-2.144-0.442c-0.615-0.296-1.126-0.69-1.532-1.185s-0.712-1.064-0.915-1.715
	c-0.203-0.647-0.306-1.33-0.306-2.048C272.99,151.961,273.093,151.277,273.296,150.629 M274.203,154.34
	c0.15,0.549,0.383,1.036,0.697,1.467c0.313,0.433,0.719,0.777,1.213,1.039s1.085,0.391,1.771,0.391c0.688,0,1.275-0.129,1.766-0.391
	c0.488-0.262,0.891-0.606,1.205-1.039c0.313-0.431,0.547-0.918,0.697-1.467c0.149-0.547,0.225-1.102,0.225-1.663
	c0-0.571-0.074-1.128-0.225-1.67c-0.152-0.542-0.384-1.028-0.697-1.46c-0.314-0.431-0.717-0.777-1.205-1.038
	c-0.489-0.262-1.077-0.393-1.766-0.393c-0.688,0-1.277,0.131-1.771,0.393c-0.494,0.261-0.898,0.607-1.213,1.038
	c-0.315,0.432-0.547,0.918-0.697,1.46c-0.148,0.542-0.225,1.099-0.225,1.67C273.979,153.238,274.055,153.793,274.203,154.34"/>
</svg>
